<?xml version="1.0" encoding="UTF-8" ?>
<!DOCTYPE svg PUBLIC "-//W3C//DTD SVG 1.1//EN" "http://www.w3.org/Graphics/SVG/1.1/DTD/svg11.dtd">
<svg width="1193pt" height="508pt" viewBox="0 0 1193 508" version="1.1" xmlns="http://www.w3.org/2000/svg">
<g id="#ff4216ff">
<path fill="#ff4216" opacity="1.00" d=" M 649.91 0.00 L 686.12 0.00 C 693.31 2.70 701.42 -0.58 708.68 1.80 C 710.76 1.99 712.83 2.09 714.93 2.14 C 713.01 21.07 711.96 40.08 710.56 59.05 C 709.17 69.83 710.91 80.76 709.18 91.51 C 708.41 109.38 706.14 127.17 705.92 145.07 C 705.59 149.03 704.99 152.98 705.03 156.96 C 704.95 173.30 705.05 189.64 704.98 205.98 C 704.88 222.51 710.01 238.58 710.12 255.09 C 710.40 258.34 711.05 261.54 711.43 264.78 C 708.27 265.09 705.12 265.55 702.03 266.26 L 701.63 268.33 C 700.91 266.36 700.30 264.37 699.68 262.38 C 697.79 256.50 698.53 250.18 696.57 244.32 C 696.03 242.12 695.48 239.93 694.88 237.75 C 693.66 234.86 694.16 231.64 693.84 228.59 C 692.47 224.35 691.56 219.97 690.48 215.65 C 689.63 212.29 690.41 208.73 689.39 205.40 C 688.14 199.62 685.94 193.97 685.94 187.99 C 685.87 186.77 685.69 185.57 685.41 184.39 C 684.55 180.90 683.52 177.46 682.60 174.00 C 681.57 170.10 682.17 165.89 680.62 162.12 C 680.59 161.49 680.53 160.23 680.50 159.59 C 680.27 159.22 679.80 158.46 679.56 158.08 C 678.10 151.37 677.85 144.45 675.97 137.82 C 673.82 133.27 674.44 128.18 673.39 123.40 C 672.44 119.47 671.55 115.54 670.61 111.61 C 670.02 109.43 670.02 107.16 669.84 104.93 C 669.17 99.15 667.33 93.60 666.20 87.91 C 665.86 83.66 665.87 79.22 664.00 75.29 C 663.61 73.95 663.25 72.60 662.83 71.27 C 661.85 64.42 660.89 57.57 659.04 50.89 C 657.92 46.57 657.79 42.07 657.18 37.66 C 656.92 37.32 656.39 36.65 656.13 36.31 C 656.08 34.63 656.45 32.79 655.26 31.37 C 655.06 30.46 654.88 29.56 654.70 28.67 C 653.61 25.66 654.36 22.37 653.34 19.35 C 653.10 18.45 652.88 17.55 652.67 16.64 C 652.23 14.98 651.97 13.28 651.71 11.58 C 650.53 7.83 649.76 3.95 649.91 0.00 Z" />
<path fill="#ff4216" opacity="1.00" d=" M 715.74 2.11 C 720.25 1.96 724.78 1.87 729.30 2.17 C 736.49 4.55 744.50 1.44 751.70 3.83 C 761.79 4.22 771.89 3.89 781.99 4.00 C 786.19 4.13 790.48 3.51 794.61 4.58 C 795.93 4.96 797.27 5.32 798.61 5.73 C 799.06 5.85 799.97 6.10 800.42 6.22 C 802.11 6.97 803.86 7.62 805.53 8.43 C 811.47 14.36 817.08 20.77 821.47 27.95 C 821.85 27.98 822.61 28.03 822.99 28.05 C 823.00 28.66 823.01 29.88 823.02 30.49 C 825.81 33.16 828.13 36.27 830.23 39.51 C 833.34 44.93 838.28 49.06 841.32 54.56 C 842.91 57.09 844.76 59.45 846.96 61.50 C 846.98 61.98 847.02 62.95 847.05 63.43 C 848.14 64.14 849.35 64.79 850.01 66.00 C 852.09 69.36 854.95 72.24 856.41 75.97 C 856.77 75.98 857.48 76.01 857.84 76.02 C 857.92 76.65 858.07 77.89 858.15 78.52 C 858.43 78.82 858.97 79.42 859.25 79.72 C 857.52 82.12 855.78 84.52 854.42 87.15 C 851.45 90.88 849.11 95.05 846.53 99.04 C 843.99 102.45 842.18 106.39 839.18 109.45 C 839.08 109.92 838.89 110.86 838.79 111.33 C 835.71 115.12 833.01 119.24 830.52 123.44 C 825.35 130.97 820.86 139.02 815.24 146.23 C 815.11 146.74 814.85 147.77 814.72 148.28 C 811.66 151.28 810.22 155.46 807.18 158.47 C 807.08 158.92 806.87 159.84 806.77 160.29 C 803.75 163.25 802.47 167.49 799.34 170.35 C 799.20 170.87 798.92 171.90 798.78 172.41 C 790.60 183.49 783.69 195.44 775.82 206.73 C 768.11 224.47 760.67 242.28 752.95 260.02 C 750.81 264.32 749.87 269.16 746.94 273.08 C 743.72 271.15 740.43 269.24 736.69 268.55 C 739.06 262.08 741.77 255.76 744.12 249.30 C 746.67 245.10 747.37 240.14 749.70 235.83 C 751.57 230.42 754.15 225.30 755.98 219.87 C 758.68 214.77 759.55 208.92 762.79 204.07 C 763.39 196.86 766.37 190.13 767.08 182.94 C 767.78 176.49 770.76 170.49 771.04 163.97 C 771.46 157.46 774.68 151.51 775.01 144.98 C 775.46 138.47 778.36 132.44 778.97 125.96 C 779.51 119.15 782.62 112.83 783.02 106.00 C 783.31 99.82 786.47 94.23 786.92 88.08 C 787.24 81.18 790.40 74.83 790.98 67.98 C 791.52 61.17 794.63 54.85 795.04 48.02 C 795.45 41.50 798.81 35.56 799.04 29.01 C 799.45 21.69 803.20 14.98 803.12 7.60 C 801.74 10.56 800.48 13.57 799.25 16.59 C 798.80 21.69 795.83 26.04 794.84 31.00 C 794.09 34.35 792.57 37.44 791.22 40.58 C 791.06 45.01 788.96 48.94 787.20 52.89 C 786.90 58.18 783.68 62.60 782.74 67.73 C 781.94 71.66 779.45 75.02 778.95 79.03 C 778.41 83.30 775.57 86.82 774.94 91.07 C 774.16 95.57 771.56 99.48 770.76 103.98 C 769.92 107.81 767.69 111.18 767.03 115.06 C 766.48 119.28 763.66 122.76 763.05 126.96 C 762.50 131.81 759.63 135.94 758.69 140.69 C 757.86 144.60 755.55 148.01 754.95 151.98 C 754.37 156.28 751.37 159.79 750.90 164.13 C 750.28 168.31 747.80 171.90 746.97 176.02 C 746.28 179.64 744.43 182.88 743.41 186.39 C 742.41 192.05 739.04 197.06 739.11 202.96 C 739.23 212.12 736.42 220.95 735.22 229.96 C 734.97 242.08 730.90 253.73 730.67 265.85 C 726.80 266.73 722.87 265.08 719.00 264.80 C 718.15 251.34 723.34 238.41 723.04 224.99 C 723.84 212.93 727.58 201.13 726.99 188.97 C 726.00 172.62 724.47 156.33 723.71 139.97 C 722.03 129.44 723.92 118.70 722.34 108.16 C 721.62 96.07 720.46 84.01 719.77 71.92 C 718.42 62.96 719.39 53.87 718.83 44.86 C 717.72 37.28 718.26 29.58 717.09 22.00 C 717.32 15.32 715.77 8.78 715.74 2.11 M 795.26 138.22 C 795.80 138.79 795.80 138.79 795.26 138.22 Z" />
<path fill="#ff4216" opacity="1.00" d=" M 863.48 84.35 C 864.15 85.53 864.78 86.74 865.41 87.97 C 865.73 87.98 866.38 88.01 866.71 88.02 C 866.65 90.11 867.86 91.57 869.65 92.49 C 870.99 95.15 872.85 97.47 874.52 99.93 C 874.81 99.95 875.41 100.01 875.70 100.04 C 875.64 102.13 876.88 103.57 878.66 104.49 C 879.96 107.53 882.38 109.80 884.28 112.44 C 884.85 114.32 886.16 115.75 887.96 116.56 C 887.98 117.05 888.02 118.02 888.04 118.50 C 890.23 120.55 892.09 122.90 893.68 125.45 C 895.74 129.49 899.47 132.35 901.34 136.51 C 903.08 137.43 904.39 138.79 904.15 140.92 C 900.91 143.00 898.05 145.64 895.42 148.44 C 891.52 151.11 888.59 154.91 884.76 157.65 C 880.49 161.76 876.13 165.79 871.45 169.45 C 864.65 176.01 857.09 181.75 850.39 188.40 C 846.52 191.14 843.58 194.96 839.67 197.61 C 830.17 206.89 819.70 215.10 810.13 224.29 C 802.60 230.44 798.13 239.49 791.29 246.33 C 791.12 246.79 790.78 247.71 790.62 248.16 C 786.23 252.05 783.70 257.51 779.54 261.59 C 778.19 264.13 775.81 265.87 774.45 268.40 C 770.08 272.98 767.07 278.67 762.44 283.02 C 759.44 280.75 756.42 278.50 753.50 276.13 C 756.50 272.11 758.88 267.54 762.66 264.15 C 762.80 263.72 763.08 262.84 763.21 262.41 C 767.71 258.19 770.09 252.25 774.67 248.12 C 774.81 247.67 775.10 246.76 775.24 246.30 C 779.81 242.19 782.07 236.17 786.70 232.13 C 786.84 231.67 787.11 230.74 787.24 230.27 C 792.23 224.72 796.83 218.56 799.72 211.64 C 811.49 188.71 822.86 165.58 834.59 142.62 C 837.28 136.48 841.06 130.83 843.34 124.51 C 844.43 122.60 845.61 120.73 846.86 118.92 C 846.92 118.33 847.04 117.16 847.09 116.57 C 848.29 114.75 849.47 112.91 850.63 111.05 C 851.33 108.01 853.04 105.36 854.82 102.84 C 854.92 102.28 855.10 101.15 855.19 100.59 C 858.66 96.73 859.20 91.25 862.72 87.43 C 862.91 86.66 863.29 85.12 863.48 84.35 Z" />
<path fill="#ff4216" opacity="1.00" d=" M 900.57 157.54 C 903.68 154.35 906.59 150.97 909.57 147.65 C 910.09 148.11 911.13 149.02 911.65 149.47 C 911.84 151.33 913.06 152.64 914.65 153.49 C 916.37 156.91 918.94 159.78 920.99 163.00 C 921.63 164.20 922.84 164.86 923.96 165.57 C 923.98 166.06 924.01 167.02 924.03 167.51 C 926.57 169.82 928.61 172.59 930.32 175.56 C 931.91 178.09 933.76 180.45 935.96 182.50 C 935.98 182.98 936.03 183.94 936.05 184.43 C 940.51 187.35 942.32 192.89 946.09 196.61 C 943.11 198.27 940.37 200.47 937.02 201.33 C 935.10 202.43 933.22 203.60 931.40 204.83 C 930.82 204.92 929.66 205.11 929.09 205.20 C 926.64 207.08 923.95 208.71 920.90 209.35 C 919.07 210.50 917.25 211.68 915.45 212.87 C 914.91 212.94 913.82 213.08 913.28 213.15 C 910.79 214.93 908.12 216.47 905.22 217.44 C 903.29 218.60 901.35 219.74 899.44 220.91 C 898.86 220.98 897.69 221.14 897.11 221.22 C 895.28 222.51 893.39 223.72 891.51 224.91 C 890.99 224.98 889.95 225.10 889.43 225.16 C 886.97 226.97 884.26 228.43 881.39 229.46 C 879.46 230.63 877.50 231.72 875.47 232.70 C 864.20 237.77 853.35 243.84 842.19 249.17 C 837.16 251.69 832.00 254.04 827.54 257.53 C 824.61 259.96 821.39 262.02 818.48 264.47 C 816.06 266.02 814.00 268.03 811.56 269.53 C 808.64 272.00 805.40 274.04 802.45 276.46 C 800.02 277.99 797.95 279.99 795.53 281.52 C 792.59 283.95 789.40 286.05 786.45 288.46 C 784.02 290.00 781.90 291.95 779.50 293.52 C 777.80 294.74 776.41 296.78 774.22 297.01 C 771.76 294.14 769.83 290.85 767.35 287.99 C 770.07 285.83 772.84 283.74 775.50 281.50 C 777.81 279.89 779.89 277.98 782.22 276.38 C 786.38 272.38 791.59 269.68 795.67 265.58 C 798.13 264.15 800.03 261.97 802.44 260.47 C 809.08 255.06 815.95 249.93 822.63 244.56 C 825.20 241.80 827.71 238.96 830.38 236.29 C 833.09 232.44 836.88 229.49 839.61 225.64 C 840.96 224.32 842.26 222.94 843.48 221.49 C 848.60 215.93 853.33 210.03 858.51 204.53 C 859.70 203.05 861.02 201.66 862.40 200.35 C 865.06 196.43 869.02 193.62 871.60 189.65 C 878.72 183.04 884.39 175.00 891.33 168.18 C 892.93 165.91 895.00 164.04 896.74 161.88 C 898.11 160.52 899.39 159.07 900.57 157.54 Z" />
<path fill="#ff4216" opacity="1.00" d=" M 949.47 205.14 C 950.13 205.12 951.44 205.08 952.10 205.06 C 953.10 206.65 954.44 208.00 955.71 209.40 C 955.79 211.31 957.03 212.63 958.66 213.49 C 960.58 217.77 964.51 220.67 966.46 224.95 C 966.84 224.98 967.61 225.03 967.99 225.06 C 968.00 225.66 968.01 226.88 968.02 227.49 C 973.30 232.52 976.62 239.14 981.32 244.66 C 983.20 246.79 984.86 249.11 986.33 251.55 C 987.75 253.71 989.21 255.87 991.03 257.74 C 985.99 258.66 981.19 260.81 976.03 261.00 C 969.50 261.31 963.56 264.56 957.05 265.00 C 950.20 265.59 943.80 268.50 936.95 269.07 C 930.49 269.70 924.53 272.82 918.00 273.04 C 911.84 273.36 906.23 276.33 900.12 276.88 C 893.24 277.35 886.85 280.37 880.00 280.98 C 873.15 281.40 866.85 284.69 859.99 285.02 C 855.16 285.34 850.46 286.77 846.09 288.81 C 845.47 288.88 844.22 289.03 843.60 289.10 C 838.69 292.03 833.03 293.21 827.99 295.87 C 815.66 300.33 803.70 305.77 791.37 310.23 C 788.50 311.84 785.47 313.18 782.14 313.38 C 781.60 312.11 781.08 310.85 780.57 309.59 C 779.56 307.59 778.66 305.53 777.74 303.50 C 783.33 300.17 789.70 298.30 795.62 295.60 C 797.79 294.41 799.95 293.07 802.47 292.75 C 808.90 289.78 815.34 286.69 822.09 284.55 C 824.70 282.91 827.37 281.17 830.50 280.75 C 833.02 279.61 835.43 278.22 838.05 277.30 C 843.11 275.68 847.59 272.59 851.64 269.21 C 852.12 269.11 853.08 268.91 853.55 268.81 C 856.56 265.76 860.71 264.25 863.79 261.30 C 864.28 261.16 865.25 260.89 865.73 260.75 C 867.53 259.13 869.50 257.71 871.62 256.53 C 877.47 253.15 882.89 249.12 888.55 245.46 C 892.70 242.92 896.87 240.32 900.66 237.26 C 901.15 237.13 902.13 236.86 902.61 236.73 C 905.58 233.69 909.75 232.32 912.73 229.30 C 913.21 229.17 914.16 228.90 914.64 228.77 C 918.54 225.62 922.77 222.87 927.15 220.45 C 930.27 217.69 934.25 216.16 937.27 213.27 C 937.74 213.12 938.67 212.82 939.14 212.67 C 942.23 209.68 946.52 208.32 949.47 205.14 Z" />
<path fill="#ff4216" opacity="1.00" d=" M 981.06 268.76 C 985.93 267.37 990.49 264.99 995.52 264.07 C 995.79 264.39 996.33 265.04 996.60 265.36 C 998.29 267.67 1000.06 269.93 1001.35 272.51 C 1003.12 273.42 1004.33 274.88 1004.29 276.97 C 1004.60 276.99 1005.22 277.03 1005.53 277.05 C 1006.20 278.20 1006.92 279.33 1007.66 280.45 C 1008.59 281.95 1009.55 283.42 1010.45 284.95 C 1010.77 284.97 1011.39 285.01 1011.71 285.03 C 1011.66 287.11 1012.86 288.57 1014.65 289.49 C 1016.37 292.92 1018.95 295.78 1020.99 299.01 C 1021.63 300.21 1022.84 300.86 1023.96 301.57 C 1023.98 302.06 1024.01 303.02 1024.03 303.51 C 1027.77 306.22 1028.90 311.31 1032.96 313.57 C 1032.98 314.05 1033.02 315.02 1033.04 315.50 C 1036.02 318.47 1038.73 321.79 1040.73 325.52 C 1042.84 328.53 1045.35 331.24 1047.47 334.25 C 1040.97 333.98 1034.51 333.08 1028.01 333.04 C 1020.82 332.85 1013.59 333.41 1006.45 332.35 C 989.96 331.39 973.52 329.97 957.03 329.02 C 937.29 329.27 917.68 326.53 897.98 325.79 C 888.68 324.46 879.28 325.26 869.93 324.83 C 864.34 324.50 858.71 323.10 853.12 324.23 C 849.09 325.08 844.97 324.89 840.90 325.13 C 831.91 326.12 823.03 327.92 814.05 328.86 C 804.57 328.96 795.32 331.27 785.92 332.19 C 785.27 328.49 784.53 324.80 783.85 321.11 C 790.81 319.53 797.83 318.15 804.91 317.20 C 814.71 317.00 824.18 314.17 833.89 313.13 C 842.41 312.82 850.75 310.79 859.04 308.94 C 863.24 308.19 866.76 305.39 871.04 304.90 C 875.45 304.15 879.31 301.69 883.69 300.80 C 887.57 299.98 890.97 297.69 894.91 297.03 C 899.21 296.51 902.75 293.64 907.02 293.01 C 911.52 292.23 915.50 289.76 919.96 288.83 C 924.10 287.86 927.81 285.55 932.04 284.86 C 935.89 284.20 939.14 281.71 943.01 281.08 C 947.55 280.39 951.50 277.83 955.97 276.90 C 960.09 275.91 963.85 273.81 968.02 272.97 C 972.55 272.11 976.41 269.20 981.06 268.76 Z" />
<path fill="#ff4216" opacity="1.00" d=" M 709.34 283.51 C 715.70 282.72 722.30 282.56 728.65 283.59 C 729.08 283.77 729.93 284.15 730.36 284.33 C 732.44 284.80 734.56 285.19 736.65 285.69 C 737.09 285.82 737.95 286.07 738.39 286.20 C 740.46 287.69 742.73 288.85 744.97 290.08 C 749.98 292.95 753.30 297.83 757.63 301.53 C 759.17 304.35 760.90 307.06 762.90 309.58 C 762.96 310.51 763.02 311.46 763.09 312.40 C 764.38 314.79 765.62 317.21 766.91 319.61 C 766.97 321.49 767.05 323.39 767.21 325.28 C 768.86 331.43 767.78 337.97 767.81 344.27 C 766.73 346.85 766.97 349.67 766.92 352.40 C 765.62 354.79 764.37 357.22 763.07 359.62 C 763.06 360.10 763.05 361.06 763.04 361.55 C 761.82 363.30 760.49 364.98 759.07 366.58 C 759.05 367.07 759.01 368.06 758.98 368.56 C 755.70 371.75 752.50 375.01 749.29 378.26 C 746.51 381.16 742.69 382.66 739.45 384.95 C 738.99 384.98 738.07 385.05 737.61 385.09 C 735.20 386.38 732.76 387.62 730.37 388.95 C 728.51 388.97 726.66 388.99 724.81 389.00 L 724.07 389.00 C 723.98 387.88 723.90 386.75 723.83 385.64 C 723.61 385.05 723.18 383.86 722.96 383.27 C 724.51 382.98 726.08 382.71 727.64 382.37 C 728.07 382.20 728.93 381.84 729.36 381.67 C 730.70 381.33 732.06 381.02 733.42 380.72 C 736.51 378.15 740.91 377.49 743.51 374.33 C 744.50 373.78 745.52 373.24 746.54 372.70 C 747.49 370.92 748.91 369.50 750.70 368.54 C 751.23 367.52 751.77 366.51 752.33 365.51 C 755.50 362.90 756.14 358.47 758.77 355.40 C 758.82 352.89 759.53 350.51 760.80 348.35 C 760.96 347.46 761.13 346.57 761.32 345.69 C 762.14 342.69 761.98 339.55 762.43 336.49 C 761.93 333.14 762.08 329.74 761.51 326.40 C 761.06 325.40 760.62 324.41 760.19 323.43 C 760.06 322.98 759.80 322.09 759.67 321.64 C 759.33 320.27 759.05 318.90 758.80 317.53 C 757.75 315.38 756.58 313.28 755.14 311.37 C 755.08 310.92 754.96 310.01 754.90 309.55 C 752.50 306.78 750.44 303.72 747.78 301.18 C 744.72 297.99 740.58 296.16 737.43 293.07 C 736.46 293.02 735.50 292.99 734.55 292.95 C 733.51 292.32 732.48 291.69 731.46 291.06 C 730.99 291.01 730.05 290.91 729.58 290.87 C 728.58 290.40 727.59 289.94 726.61 289.49 C 721.87 288.83 716.89 288.42 712.23 289.72 C 711.96 289.48 711.43 289.00 711.16 288.76 C 709.30 289.62 707.43 290.44 705.67 291.47 C 705.01 289.50 704.87 287.42 704.72 285.37 C 706.13 284.48 707.73 283.97 709.34 283.51 Z" />
<path fill="#ff4216" opacity="1.00" d=" M 972.03 340.98 C 991.35 339.68 1010.66 338.36 1029.98 337.01 C 1036.05 337.04 1042.13 336.92 1048.21 336.87 C 1048.97 337.36 1049.74 337.84 1050.54 338.33 C 1052.14 340.57 1054.05 342.59 1055.55 344.93 C 1055.91 344.96 1056.63 345.03 1056.99 345.06 C 1057.00 345.67 1057.01 346.89 1057.02 347.50 C 1059.56 349.80 1061.61 352.58 1063.31 355.56 C 1064.70 357.73 1066.19 359.87 1068.29 361.43 C 1068.36 361.49 1068.49 361.63 1068.56 361.69 C 1070.14 363.47 1071.69 365.34 1072.78 367.49 C 1073.37 368.49 1074.00 369.47 1074.67 370.46 C 1075.51 371.81 1076.39 373.15 1077.22 374.54 C 1078.08 376.03 1079.06 377.45 1080.11 378.83 C 1079.85 379.59 1079.33 381.12 1079.07 381.88 C 1075.37 378.75 1073.64 374.13 1070.61 370.47 C 1069.94 373.27 1069.34 376.10 1069.20 378.98 C 1068.84 384.60 1066.69 389.88 1065.39 395.30 C 1065.38 397.82 1065.80 400.39 1065.07 402.86 C 1064.09 405.81 1063.23 408.79 1062.46 411.80 L 1061.31 411.46 C 1061.39 413.75 1061.46 416.05 1061.48 418.35 C 1058.55 421.17 1057.54 425.18 1056.77 429.02 C 1056.59 429.61 1056.23 430.77 1056.05 431.36 L 1055.68 431.88 C 1055.51 432.31 1055.17 433.17 1055.00 433.60 L 1055.64 434.25 C 1055.54 434.82 1055.34 435.95 1055.24 436.51 C 1054.87 436.97 1054.12 437.87 1053.75 438.33 L 1053.59 438.52 L 1053.53 438.77 C 1053.39 439.43 1053.10 440.75 1052.96 441.42 C 1051.70 444.21 1050.51 447.04 1049.73 450.02 L 1049.61 450.33 L 1049.53 450.50 L 1049.50 450.75 C 1049.56 455.12 1047.27 458.84 1045.35 462.57 C 1044.95 464.59 1044.50 466.60 1044.08 468.62 C 1043.62 469.06 1042.72 469.93 1042.27 470.36 C 1041.79 472.43 1041.34 474.51 1041.01 476.62 C 1040.56 477.07 1039.64 477.96 1039.18 478.40 C 1039.19 478.95 1039.22 480.03 1039.23 480.58 C 1038.74 481.02 1037.78 481.90 1037.29 482.35 C 1037.21 483.39 1037.11 484.44 1037.01 485.49 L 1036.04 486.56 L 1035.66 486.36 L 1035.44 486.62 L 1035.65 487.00 C 1035.64 488.21 1035.64 489.42 1035.65 490.64 C 1035.22 491.04 1034.35 491.83 1033.91 492.23 C 1033.31 495.82 1031.29 498.89 1029.39 501.91 C 1029.00 501.90 1028.23 501.87 1027.85 501.86 C 1025.54 501.11 1026.50 504.38 1028.17 502.74 C 1032.33 502.81 1036.50 502.74 1040.68 502.86 L 1041.88 503.05 C 1041.94 503.79 1042.06 505.26 1042.13 506.00 C 1030.75 506.01 1019.38 505.98 1008.01 506.02 C 1008.01 505.33 1008.00 503.95 1007.99 503.27 C 1004.99 501.98 1002.27 500.19 999.58 498.39 C 991.60 492.98 983.44 487.86 975.47 482.44 C 971.34 479.86 967.20 477.24 963.36 474.25 C 962.89 474.12 961.95 473.87 961.48 473.74 C 958.42 470.77 954.35 469.19 951.32 466.21 C 950.82 466.10 949.83 465.87 949.33 465.76 C 945.00 461.89 939.65 459.43 935.03 455.93 C 928.26 451.30 921.00 447.33 914.59 442.21 C 914.11 442.09 913.16 441.85 912.69 441.73 C 909.66 438.78 905.57 437.29 902.58 434.29 C 902.09 434.16 901.11 433.88 900.63 433.74 C 896.81 430.72 892.64 428.14 888.53 425.54 C 878.52 418.70 868.10 412.50 858.34 405.33 C 857.84 405.16 856.85 404.82 856.36 404.65 C 853.36 401.70 849.23 400.30 846.31 397.27 C 845.85 397.14 844.93 396.87 844.48 396.74 C 840.06 393.55 834.61 392.55 829.92 389.91 C 822.33 387.13 815.14 383.35 807.54 380.65 C 802.40 377.87 796.82 376.14 791.60 373.54 C 787.27 372.45 783.70 369.45 779.28 368.69 C 778.96 368.31 778.32 367.56 778.01 367.18 C 779.35 363.61 780.91 360.13 782.50 356.67 C 788.19 359.54 794.30 361.27 800.03 364.02 C 817.02 370.57 833.77 377.60 850.76 384.18 C 853.40 385.07 856.24 384.87 858.98 385.33 C 864.71 386.29 870.16 388.64 876.00 389.04 C 882.83 389.64 889.20 392.71 896.07 393.10 C 902.22 393.58 907.82 396.72 914.01 396.98 C 920.54 397.24 926.54 400.28 933.02 400.93 C 940.17 401.63 946.87 404.76 954.09 405.13 C 960.23 405.67 965.86 408.76 972.05 409.01 C 980.26 409.55 987.80 413.64 996.03 414.09 C 1002.49 414.68 1008.53 417.46 1015.00 418.06 C 1021.11 418.73 1026.82 421.36 1032.95 421.91 C 1038.92 422.22 1044.58 424.29 1050.34 425.69 C 1043.63 422.85 1036.62 420.86 1029.79 418.36 C 1024.88 417.79 1020.80 414.69 1015.96 413.94 C 1011.58 413.26 1007.83 410.69 1003.61 409.49 C 1001.44 408.89 999.23 408.45 997.12 407.68 C 991.46 405.22 985.38 404.02 979.74 401.54 C 974.22 400.90 969.53 397.64 964.11 396.70 C 960.28 395.89 956.90 393.74 953.07 392.95 C 948.87 392.14 945.21 389.72 941.01 388.98 C 936.76 388.39 933.22 385.63 929.00 384.97 C 924.83 384.26 921.15 382.00 917.05 381.05 C 912.21 379.98 907.87 377.32 902.93 376.59 C 898.72 375.28 894.88 372.89 890.39 372.47 C 883.63 369.79 876.62 367.91 869.80 365.40 C 864.51 364.85 860.19 361.16 854.87 360.88 C 847.53 360.00 840.35 358.09 833.02 357.17 C 822.16 357.04 811.74 353.36 800.91 352.92 C 795.13 352.65 789.49 351.19 783.86 349.97 C 784.48 346.25 785.19 342.54 785.90 338.84 C 791.25 339.35 796.53 340.52 801.89 340.91 C 814.72 341.02 827.15 345.22 840.00 345.07 C 847.40 345.25 854.62 348.17 862.07 347.02 C 867.70 346.20 873.38 346.21 879.05 345.77 C 890.31 344.10 901.77 345.93 913.05 344.24 C 932.72 343.48 952.31 340.65 972.03 340.98 Z" />
<path fill="#ff4216" opacity="1.00" d=" M 767.62 382.38 C 769.94 379.44 772.19 376.44 774.60 373.57 C 777.63 375.95 780.93 377.99 783.67 380.73 C 784.14 380.87 785.10 381.16 785.57 381.31 C 789.66 385.73 795.23 388.37 799.61 392.48 C 805.05 396.32 810.49 400.24 815.66 404.46 C 819.79 407.19 823.70 410.29 827.46 413.53 C 829.71 414.90 831.72 416.69 834.13 417.81 C 844.60 423.05 855.05 428.30 865.51 433.58 C 868.97 434.87 871.85 437.40 875.48 438.28 C 877.51 439.28 879.47 440.43 881.32 441.74 C 881.86 441.84 882.92 442.03 883.45 442.12 C 885.42 443.35 887.42 444.56 889.36 445.85 C 889.90 445.91 890.96 446.04 891.50 446.10 C 893.36 447.32 895.23 448.55 897.06 449.84 C 897.65 449.90 898.85 450.02 899.45 450.08 C 901.36 451.29 903.29 452.49 905.16 453.78 C 905.73 453.88 906.86 454.07 907.43 454.17 C 909.28 455.39 911.19 456.55 913.13 457.65 C 915.96 458.41 918.43 460.04 920.85 461.66 C 923.92 462.24 926.56 463.97 929.02 465.83 C 929.60 465.92 930.78 466.09 931.37 466.17 C 935.34 469.42 940.53 470.47 944.56 473.64 C 948.61 474.19 951.42 477.64 955.42 478.41 C 957.80 480.00 960.22 481.62 963.04 482.34 C 964.94 483.47 966.81 484.65 968.63 485.91 C 969.26 485.96 970.51 486.04 971.13 486.08 C 975.07 489.63 980.60 490.39 984.61 493.86 C 985.21 493.94 986.41 494.10 987.01 494.18 C 988.85 495.46 990.72 496.69 992.59 497.95 C 993.23 497.98 994.50 498.05 995.13 498.08 C 996.90 499.40 998.71 500.67 1000.53 501.94 C 1000.99 501.98 1001.90 502.06 1002.36 502.09 C 1003.36 503.75 1004.73 505.15 1006.50 506.01 C 967.63 506.00 928.77 505.99 889.90 506.01 C 890.50 504.72 891.10 503.42 891.71 502.13 C 883.85 496.38 878.82 487.78 871.59 481.39 C 869.02 477.40 865.04 474.59 862.39 470.68 C 861.01 469.35 859.70 467.96 858.49 466.49 C 852.00 459.64 846.22 452.13 839.59 445.41 C 836.84 441.57 833.12 438.57 830.38 434.75 C 827.72 432.04 825.18 429.24 822.61 426.45 C 814.93 420.49 807.32 414.39 799.69 408.44 C 795.65 404.17 790.05 401.77 786.25 397.28 C 785.79 397.15 784.86 396.88 784.40 396.74 C 782.97 395.09 781.37 393.61 779.52 392.48 C 775.79 388.85 770.61 386.59 767.62 382.38 Z" />
<path fill="#ff4216" opacity="1.00" d=" M 759.73 389.45 C 760.74 388.98 761.76 388.52 762.78 388.07 C 765.57 391.03 767.89 394.39 770.48 397.53 C 772.14 399.80 774.10 401.84 775.58 404.24 C 781.18 409.97 784.83 417.33 790.61 422.90 C 790.78 423.34 791.10 424.23 791.26 424.68 C 798.12 431.55 802.62 440.59 810.15 446.78 C 818.35 454.61 827.16 461.79 835.50 469.49 C 836.98 470.67 838.34 472.00 839.63 473.42 C 843.55 476.06 846.48 479.89 850.34 482.62 C 851.64 483.99 853.02 485.30 854.51 486.49 C 859.35 491.03 864.53 495.20 869.40 499.70 C 871.67 501.91 874.77 503.18 876.45 505.99 C 857.57 506.02 838.70 505.98 819.82 506.01 C 820.45 504.86 821.09 503.72 821.73 502.58 C 816.73 493.70 812.58 484.36 807.78 475.38 C 804.82 468.71 800.90 462.51 798.12 455.76 C 794.85 449.72 790.20 444.57 786.39 438.89 C 782.56 434.83 779.92 429.85 776.30 425.63 C 771.78 420.09 767.91 414.08 763.50 408.47 C 762.10 405.96 759.81 404.10 758.50 401.54 C 756.65 399.39 754.94 397.13 753.41 394.74 C 755.64 393.13 757.92 391.55 759.73 389.45 Z" />
<path fill="#ff4216" opacity="1.00" d=" M 736.66 402.26 C 740.24 401.23 743.77 399.98 746.96 398.01 C 750.55 403.26 751.95 409.56 754.77 415.21 C 760.88 429.18 766.61 443.27 772.78 457.21 C 774.35 460.07 774.88 463.46 776.99 466.03 C 784.41 476.79 790.98 488.13 798.79 498.61 C 798.91 499.11 799.15 500.11 799.27 500.61 C 800.74 502.32 802.10 504.12 803.36 506.00 C 791.92 506.01 780.48 505.97 769.04 506.03 C 771.96 500.82 767.84 495.37 767.36 490.05 C 766.75 482.17 763.53 474.81 762.78 466.96 C 759.63 462.34 758.82 456.71 756.25 451.82 C 753.09 443.07 748.99 434.68 746.12 425.83 C 742.36 418.23 739.81 410.12 736.66 402.26 Z" />
<path fill="#ff4216" opacity="1.00" d=" M 1110.17 419.48 C 1110.46 420.11 1111.04 421.35 1111.33 421.97 C 1111.75 421.99 1112.58 422.03 1112.99 422.05 C 1113.00 422.66 1113.01 423.88 1113.02 424.49 C 1117.10 428.34 1119.97 433.20 1123.25 437.71 C 1125.87 441.38 1129.11 444.59 1131.32 448.55 C 1132.90 451.09 1134.76 453.45 1136.96 455.49 C 1136.98 455.98 1137.02 456.95 1137.05 457.43 C 1138.14 458.13 1139.35 458.79 1140.02 460.00 C 1142.05 463.22 1144.62 466.09 1146.35 469.51 C 1148.12 470.42 1149.32 471.89 1149.29 473.97 C 1149.61 473.99 1150.23 474.03 1150.54 474.05 C 1152.11 476.72 1153.88 479.27 1155.46 481.95 C 1155.77 481.97 1156.39 482.01 1156.71 482.03 C 1156.65 484.11 1157.87 485.57 1159.66 486.49 C 1160.96 489.53 1163.39 491.80 1165.28 494.45 C 1165.86 496.20 1167.05 497.59 1168.68 498.48 C 1169.61 499.95 1170.56 501.43 1171.44 502.96 C 1171.83 502.98 1172.61 503.03 1173.00 503.05 C 1173.00 503.79 1173.00 505.26 1173.00 506.00 C 1142.31 506.00 1111.62 506.00 1080.94 506.00 C 1080.99 505.35 1081.09 504.06 1081.14 503.41 C 1082.45 501.50 1083.60 499.49 1084.69 497.45 C 1085.01 495.92 1085.35 494.38 1086.10 492.99 C 1088.82 488.02 1089.91 482.39 1092.74 477.46 C 1093.33 473.05 1096.33 469.45 1096.95 465.06 C 1097.63 460.83 1100.17 457.20 1100.88 452.99 C 1101.60 448.51 1103.93 444.51 1104.78 440.08 C 1105.51 433.62 1108.39 427.70 1109.73 421.38 C 1109.84 420.90 1110.06 419.96 1110.17 419.48 Z" />
<path fill="#ff4216" opacity="1.00" d=" M 731.99 430.83 C 732.25 431.38 732.78 432.48 733.04 433.03 C 732.78 432.48 732.25 431.38 731.99 430.83 Z" />
<path fill="#ff4216" opacity="1.00" d=" M 733.02 434.81 C 733.24 435.38 733.69 436.53 733.91 437.10 C 733.69 436.53 733.24 435.38 733.02 434.81 Z" />
</g>
<g id="#000088ff">
<path fill="#000088" opacity="1.00" d=" M 714.93 2.14 C 715.13 2.13 715.54 2.12 715.74 2.11 C 715.77 8.78 717.32 15.32 717.09 22.00 C 718.26 29.58 717.72 37.28 718.83 44.86 C 719.39 53.87 718.42 62.96 719.77 71.92 C 720.46 84.01 721.62 96.07 722.34 108.16 C 723.92 118.70 722.03 129.44 723.71 139.97 C 724.47 156.33 726.00 172.62 726.99 188.97 C 727.58 201.13 723.84 212.93 723.04 224.99 C 723.34 238.41 718.15 251.34 719.00 264.80 C 722.87 265.08 726.80 266.73 730.67 265.85 C 730.90 253.73 734.97 242.08 735.22 229.96 C 736.42 220.95 739.23 212.12 739.11 202.96 C 739.04 197.06 742.41 192.05 743.41 186.39 C 744.43 182.88 746.28 179.64 746.97 176.02 C 747.80 171.90 750.28 168.31 750.90 164.13 C 751.37 159.79 754.37 156.28 754.95 151.98 C 755.55 148.01 757.86 144.60 758.69 140.69 C 759.63 135.94 762.50 131.81 763.05 126.96 C 763.66 122.76 766.48 119.28 767.03 115.06 C 767.69 111.18 769.92 107.81 770.76 103.98 C 771.56 99.48 774.16 95.57 774.94 91.07 C 775.57 86.82 778.41 83.30 778.95 79.03 C 779.45 75.02 781.94 71.66 782.74 67.73 C 783.68 62.60 786.90 58.18 787.20 52.89 C 788.96 48.94 791.06 45.01 791.22 40.58 C 792.57 37.44 794.09 34.35 794.84 31.00 C 795.83 26.04 798.80 21.69 799.25 16.59 C 800.48 13.57 801.74 10.56 803.12 7.60 C 803.20 14.98 799.45 21.69 799.04 29.01 C 798.81 35.56 795.45 41.50 795.04 48.02 C 794.63 54.85 791.52 61.17 790.98 67.98 C 790.40 74.83 787.24 81.18 786.92 88.08 C 786.47 94.23 783.31 99.82 783.02 106.00 C 782.62 112.83 779.51 119.15 778.97 125.96 C 778.36 132.44 775.46 138.47 775.01 144.98 C 774.68 151.51 771.46 157.46 771.04 163.97 C 770.76 170.49 767.78 176.49 767.08 182.94 C 766.37 190.13 763.39 196.86 762.79 204.07 C 759.55 208.92 758.68 214.77 755.98 219.87 C 754.15 225.30 751.57 230.42 749.70 235.83 C 747.37 240.14 746.67 245.10 744.12 249.30 C 741.77 255.76 739.06 262.08 736.69 268.55 C 740.43 269.24 743.72 271.15 746.94 273.08 C 749.87 269.16 750.81 264.32 752.95 260.02 C 760.67 242.28 768.11 224.47 775.82 206.73 C 783.69 195.44 790.60 183.49 798.78 172.41 C 798.92 171.90 799.20 170.87 799.34 170.35 C 802.47 167.49 803.75 163.25 806.77 160.29 C 806.87 159.84 807.08 158.92 807.18 158.47 C 810.22 155.46 811.66 151.28 814.72 148.28 C 814.85 147.77 815.11 146.74 815.24 146.23 C 820.86 139.02 825.35 130.97 830.52 123.44 C 833.01 119.24 835.71 115.12 838.79 111.33 C 838.89 110.86 839.08 109.92 839.18 109.45 C 842.18 106.39 843.99 102.45 846.53 99.04 C 849.11 95.05 851.45 90.88 854.42 87.15 C 855.78 84.52 857.52 82.12 859.25 79.72 C 860.69 81.22 862.19 82.69 863.48 84.35 C 863.29 85.12 862.91 86.66 862.72 87.43 C 859.20 91.25 858.66 96.73 855.19 100.59 C 855.10 101.15 854.92 102.28 854.82 102.84 C 853.04 105.36 851.33 108.01 850.63 111.05 C 849.47 112.91 848.29 114.75 847.09 116.57 C 847.04 117.16 846.92 118.33 846.86 118.92 C 845.61 120.73 844.43 122.60 843.34 124.51 C 841.06 130.83 837.28 136.48 834.59 142.62 C 822.86 165.58 811.49 188.71 799.72 211.64 C 796.83 218.56 792.23 224.72 787.24 230.27 C 787.11 230.74 786.84 231.67 786.70 232.13 C 782.07 236.17 779.81 242.19 775.24 246.30 C 775.10 246.76 774.81 247.67 774.67 248.12 C 770.09 252.25 767.71 258.19 763.21 262.41 C 763.08 262.84 762.80 263.72 762.66 264.15 C 758.88 267.54 756.50 272.11 753.50 276.13 C 756.42 278.50 759.44 280.75 762.44 283.02 C 767.07 278.67 770.08 272.98 774.45 268.40 C 775.81 265.87 778.19 264.13 779.54 261.59 C 783.70 257.51 786.23 252.05 790.62 248.16 C 790.78 247.71 791.12 246.79 791.29 246.33 C 798.13 239.49 802.60 230.44 810.13 224.29 C 819.70 215.10 830.17 206.89 839.67 197.61 C 843.58 194.96 846.52 191.14 850.39 188.40 C 857.09 181.75 864.65 176.01 871.45 169.45 C 876.13 165.79 880.49 161.76 884.76 157.65 C 888.59 154.91 891.52 151.11 895.42 148.44 C 898.05 145.64 900.91 143.00 904.15 140.92 C 904.61 140.91 905.52 140.89 905.98 140.89 C 906.00 141.52 906.04 142.79 906.06 143.43 C 906.86 144.46 907.66 145.51 908.45 146.57 C 908.73 146.84 909.29 147.38 909.57 147.65 C 906.59 150.97 903.68 154.35 900.57 157.54 C 899.39 159.07 898.11 160.52 896.74 161.88 C 895.00 164.04 892.93 165.91 891.33 168.18 C 884.39 175.00 878.72 183.04 871.60 189.65 C 869.02 193.62 865.06 196.43 862.40 200.35 C 861.02 201.66 859.70 203.05 858.51 204.53 C 853.33 210.03 848.60 215.93 843.48 221.49 C 842.26 222.94 840.96 224.32 839.61 225.64 C 836.88 229.49 833.09 232.44 830.38 236.29 C 827.71 238.96 825.20 241.80 822.63 244.56 C 815.95 249.93 809.08 255.06 802.44 260.47 C 800.03 261.97 798.13 264.15 795.67 265.58 C 791.59 269.68 786.38 272.38 782.22 276.38 C 779.89 277.98 777.81 279.89 775.50 281.50 C 772.84 283.74 770.07 285.83 767.35 287.99 C 769.83 290.85 771.76 294.14 774.22 297.01 C 776.41 296.78 777.80 294.74 779.50 293.52 C 781.90 291.95 784.02 290.00 786.45 288.46 C 789.40 286.05 792.59 283.95 795.53 281.52 C 797.95 279.99 800.02 277.99 802.45 276.46 C 805.40 274.04 808.64 272.00 811.56 269.53 C 814.00 268.03 816.06 266.02 818.48 264.47 C 821.39 262.02 824.61 259.96 827.54 257.53 C 832.00 254.04 837.16 251.69 842.19 249.17 C 853.35 243.84 864.20 237.77 875.47 232.70 C 877.50 231.72 879.46 230.63 881.39 229.46 C 884.26 228.43 886.97 226.97 889.43 225.16 C 889.95 225.10 890.99 224.98 891.51 224.91 C 893.39 223.72 895.28 222.51 897.11 221.22 C 897.69 221.14 898.86 220.98 899.44 220.91 C 901.35 219.74 903.29 218.60 905.22 217.44 C 908.12 216.47 910.79 214.93 913.28 213.15 C 913.82 213.08 914.91 212.94 915.45 212.87 C 917.25 211.68 919.07 210.50 920.90 209.35 C 923.95 208.71 926.64 207.08 929.09 205.20 C 929.66 205.11 930.82 204.92 931.40 204.83 C 933.22 203.60 935.10 202.43 937.02 201.33 C 940.37 200.47 943.11 198.27 946.09 196.61 C 947.91 198.90 949.79 201.14 951.56 203.47 C 951.70 203.87 951.96 204.66 952.10 205.06 C 951.44 205.08 950.13 205.12 949.47 205.14 C 946.52 208.32 942.23 209.68 939.14 212.67 C 938.67 212.82 937.74 213.12 937.27 213.27 C 934.25 216.16 930.27 217.69 927.15 220.45 C 922.77 222.87 918.54 225.62 914.64 228.77 C 914.16 228.90 913.21 229.17 912.73 229.30 C 909.75 232.32 905.58 233.69 902.61 236.73 C 902.13 236.86 901.15 237.13 900.66 237.26 C 896.87 240.32 892.70 242.92 888.55 245.46 C 882.89 249.12 877.47 253.15 871.62 256.53 C 869.50 257.71 867.53 259.13 865.73 260.75 C 865.25 260.89 864.28 261.16 863.79 261.30 C 860.71 264.25 856.56 265.76 853.55 268.81 C 853.08 268.91 852.12 269.11 851.64 269.21 C 847.59 272.59 843.11 275.68 838.05 277.30 C 835.43 278.22 833.02 279.61 830.50 280.75 C 827.37 281.17 824.70 282.91 822.09 284.55 C 815.34 286.69 808.90 289.78 802.47 292.75 C 799.95 293.07 797.79 294.41 795.62 295.60 C 789.70 298.30 783.33 300.17 777.74 303.50 C 778.66 305.53 779.56 307.59 780.57 309.59 C 781.08 310.85 781.60 312.11 782.14 313.38 C 785.47 313.18 788.50 311.84 791.37 310.23 C 803.70 305.77 815.66 300.33 827.99 295.87 C 833.03 293.21 838.69 292.03 843.60 289.10 C 844.22 289.03 845.47 288.88 846.09 288.81 C 850.46 286.77 855.16 285.34 859.99 285.02 C 866.85 284.69 873.15 281.40 880.00 280.98 C 886.85 280.37 893.24 277.35 900.12 276.88 C 906.23 276.33 911.84 273.36 918.00 273.04 C 924.53 272.82 930.49 269.70 936.95 269.07 C 943.80 268.50 950.20 265.59 957.05 265.00 C 963.56 264.56 969.50 261.31 976.03 261.00 C 981.19 260.81 985.99 258.66 991.03 257.74 L 991.60 258.27 C 992.92 260.19 994.35 262.04 995.52 264.07 C 990.49 264.99 985.93 267.37 981.06 268.76 C 976.41 269.20 972.55 272.11 968.02 272.97 C 963.85 273.81 960.09 275.91 955.97 276.90 C 951.50 277.83 947.55 280.39 943.01 281.08 C 939.14 281.71 935.89 284.20 932.04 284.86 C 927.81 285.55 924.10 287.86 919.96 288.83 C 915.50 289.76 911.52 292.23 907.02 293.01 C 902.75 293.64 899.21 296.51 894.91 297.03 C 890.97 297.69 887.57 299.98 883.69 300.80 C 879.31 301.69 875.45 304.15 871.04 304.90 C 866.76 305.39 863.24 308.19 859.04 308.94 C 850.75 310.79 842.41 312.82 833.89 313.13 C 824.18 314.17 814.71 317.00 804.91 317.20 C 797.83 318.15 790.81 319.53 783.85 321.11 C 784.53 324.80 785.27 328.49 785.92 332.19 C 795.32 331.27 804.57 328.96 814.05 328.86 C 823.03 327.92 831.91 326.12 840.90 325.13 C 844.97 324.89 849.09 325.08 853.12 324.23 C 858.71 323.10 864.34 324.50 869.93 324.83 C 879.28 325.26 888.68 324.46 897.98 325.79 C 917.68 326.53 937.29 329.27 957.03 329.02 C 973.52 329.97 989.96 331.39 1006.45 332.35 C 1013.59 333.41 1020.82 332.85 1028.01 333.04 C 1034.51 333.08 1040.97 333.98 1047.47 334.25 L 1047.65 334.69 C 1047.79 335.23 1048.07 336.33 1048.21 336.87 C 1042.13 336.92 1036.05 337.04 1029.98 337.01 C 1010.66 338.36 991.35 339.68 972.03 340.98 C 952.31 340.65 932.72 343.48 913.05 344.24 C 901.77 345.93 890.31 344.10 879.05 345.77 C 873.38 346.21 867.70 346.20 862.07 347.02 C 854.62 348.17 847.40 345.25 840.00 345.07 C 827.15 345.22 814.72 341.02 801.89 340.91 C 796.53 340.52 791.25 339.35 785.90 338.84 C 785.19 342.54 784.48 346.25 783.86 349.97 C 789.49 351.19 795.13 352.65 800.91 352.92 C 811.74 353.36 822.16 357.04 833.02 357.17 C 840.35 358.09 847.53 360.00 854.87 360.88 C 860.19 361.16 864.51 364.85 869.80 365.40 C 876.62 367.91 883.63 369.79 890.39 372.47 C 894.88 372.89 898.72 375.28 902.93 376.59 C 907.87 377.32 912.21 379.98 917.05 381.05 C 921.15 382.00 924.83 384.26 929.00 384.97 C 933.22 385.63 936.76 388.39 941.01 388.98 C 945.21 389.72 948.87 392.14 953.07 392.95 C 956.90 393.74 960.28 395.89 964.11 396.70 C 969.53 397.64 974.22 400.90 979.74 401.54 C 985.38 404.02 991.46 405.22 997.12 407.68 C 999.23 408.45 1001.44 408.89 1003.61 409.49 C 1007.83 410.69 1011.58 413.26 1015.96 413.94 C 1020.80 414.69 1024.88 417.79 1029.79 418.36 C 1036.62 420.86 1043.63 422.85 1050.34 425.69 C 1044.58 424.29 1038.92 422.22 1032.95 421.91 C 1026.82 421.36 1021.11 418.73 1015.00 418.06 C 1008.53 417.46 1002.49 414.68 996.03 414.09 C 987.80 413.64 980.26 409.55 972.05 409.01 C 965.86 408.76 960.23 405.67 954.09 405.13 C 946.87 404.76 940.17 401.63 933.02 400.93 C 926.54 400.28 920.54 397.24 914.01 396.98 C 907.82 396.72 902.22 393.58 896.07 393.10 C 889.20 392.71 882.83 389.64 876.00 389.04 C 870.16 388.64 864.71 386.29 858.98 385.33 C 856.24 384.87 853.40 385.07 850.76 384.18 C 833.77 377.60 817.02 370.57 800.03 364.02 C 794.30 361.27 788.19 359.54 782.50 356.67 C 780.91 360.13 779.35 363.61 778.01 367.18 C 778.32 367.56 778.96 368.31 779.28 368.69 C 783.70 369.45 787.27 372.45 791.60 373.54 C 796.82 376.14 802.40 377.87 807.54 380.65 C 815.14 383.35 822.33 387.13 829.92 389.91 C 834.61 392.55 840.06 393.55 844.48 396.74 C 844.93 396.87 845.85 397.14 846.31 397.27 C 849.23 400.30 853.36 401.70 856.36 404.65 C 856.85 404.82 857.84 405.16 858.34 405.33 C 868.10 412.50 878.52 418.70 888.53 425.54 C 892.64 428.14 896.81 430.72 900.63 433.74 C 901.11 433.88 902.09 434.16 902.58 434.29 C 905.57 437.29 909.66 438.78 912.69 441.73 C 913.16 441.85 914.11 442.09 914.59 442.21 C 921.00 447.33 928.26 451.30 935.03 455.93 C 939.65 459.43 945.00 461.89 949.33 465.76 C 949.83 465.87 950.82 466.10 951.32 466.21 C 954.35 469.19 958.42 470.77 961.48 473.74 C 961.95 473.87 962.89 474.12 963.36 474.25 C 967.20 477.24 971.34 479.86 975.47 482.44 C 983.44 487.86 991.60 492.98 999.58 498.39 C 1002.27 500.19 1004.99 501.98 1007.99 503.27 C 1008.00 503.95 1008.01 505.33 1008.01 506.02 C 1007.63 506.02 1006.88 506.01 1006.50 506.01 C 1004.73 505.15 1003.36 503.75 1002.36 502.09 C 1001.90 502.06 1000.99 501.98 1000.53 501.94 C 998.71 500.67 996.90 499.40 995.13 498.08 C 994.50 498.05 993.23 497.98 992.59 497.95 C 990.72 496.69 988.85 495.46 987.01 494.18 C 986.41 494.10 985.21 493.94 984.61 493.86 C 980.60 490.39 975.07 489.63 971.13 486.08 C 970.51 486.04 969.26 485.96 968.63 485.91 C 966.81 484.65 964.94 483.47 963.04 482.34 C 960.22 481.62 957.80 480.00 955.42 478.41 C 951.42 477.64 948.61 474.19 944.56 473.64 C 940.53 470.47 935.34 469.42 931.37 466.17 C 930.78 466.09 929.60 465.92 929.02 465.83 C 926.56 463.97 923.92 462.24 920.85 461.66 C 918.43 460.04 915.96 458.41 913.13 457.65 C 911.19 456.55 909.28 455.39 907.43 454.17 C 906.86 454.07 905.73 453.88 905.16 453.78 C 903.29 452.49 901.36 451.29 899.45 450.08 C 898.85 450.02 897.65 449.90 897.06 449.84 C 895.23 448.55 893.36 447.32 891.50 446.10 C 890.96 446.04 889.90 445.91 889.36 445.85 C 887.42 444.56 885.42 443.35 883.45 442.12 C 882.92 442.03 881.86 441.84 881.32 441.74 C 879.47 440.43 877.51 439.28 875.48 438.28 C 871.85 437.40 868.97 434.87 865.51 433.58 C 855.05 428.30 844.60 423.05 834.13 417.81 C 831.72 416.69 829.71 414.90 827.46 413.53 C 823.70 410.29 819.79 407.19 815.66 404.46 C 810.49 400.24 805.05 396.32 799.61 392.48 C 795.23 388.37 789.66 385.73 785.57 381.31 C 785.10 381.16 784.14 380.87 783.67 380.73 C 780.93 377.99 777.63 375.95 774.60 373.57 C 772.19 376.44 769.94 379.44 767.62 382.38 C 770.61 386.59 775.79 388.85 779.52 392.48 C 781.37 393.61 782.97 395.09 784.40 396.74 C 784.86 396.88 785.79 397.15 786.25 397.28 C 790.05 401.77 795.65 404.17 799.69 408.44 C 807.32 414.39 814.93 420.49 822.61 426.45 C 825.18 429.24 827.72 432.04 830.38 434.75 C 833.12 438.57 836.84 441.57 839.59 445.41 C 846.22 452.13 852.00 459.64 858.49 466.49 C 859.70 467.96 861.01 469.35 862.39 470.68 C 865.04 474.59 869.02 477.40 871.59 481.39 C 878.82 487.78 883.85 496.38 891.71 502.13 C 891.10 503.42 890.50 504.72 889.90 506.01 C 885.41 506.01 880.93 506.00 876.45 505.99 C 874.77 503.18 871.67 501.91 869.40 499.70 C 864.53 495.20 859.35 491.03 854.51 486.49 C 853.02 485.30 851.64 483.99 850.34 482.62 C 846.48 479.89 843.55 476.06 839.63 473.42 C 838.34 472.00 836.98 470.67 835.50 469.49 C 827.16 461.79 818.35 454.61 810.15 446.78 C 802.62 440.59 798.12 431.55 791.26 424.68 C 791.10 424.23 790.78 423.34 790.61 422.90 C 784.83 417.33 781.18 409.97 775.58 404.24 C 774.10 401.84 772.14 399.80 770.48 397.53 C 767.89 394.39 765.57 391.03 762.78 388.07 C 761.76 388.52 760.74 388.98 759.73 389.45 C 757.92 391.55 755.64 393.13 753.41 394.74 C 754.94 397.13 756.65 399.39 758.50 401.54 C 759.81 404.10 762.10 405.96 763.50 408.47 C 767.91 414.08 771.78 420.09 776.30 425.63 C 779.92 429.85 782.56 434.83 786.39 438.89 C 790.20 444.57 794.85 449.72 798.12 455.76 C 800.90 462.51 804.82 468.71 807.78 475.38 C 812.58 484.36 816.73 493.70 821.73 502.58 C 821.09 503.72 820.45 504.86 819.82 506.01 C 814.33 506.00 808.84 506.00 803.36 506.00 C 802.10 504.12 800.74 502.32 799.27 500.61 C 799.15 500.11 798.91 499.11 798.79 498.61 C 790.98 488.13 784.41 476.79 776.99 466.03 C 774.88 463.46 774.35 460.07 772.78 457.21 C 766.61 443.27 760.88 429.18 754.77 415.21 C 751.95 409.56 750.55 403.26 746.96 398.01 C 743.77 399.98 740.24 401.23 736.66 402.26 C 739.81 410.12 742.36 418.23 746.12 425.83 C 748.99 434.68 753.09 443.07 756.25 451.82 C 758.82 456.71 759.63 462.34 762.78 466.96 C 763.53 474.81 766.75 482.17 767.36 490.05 C 767.84 495.37 771.96 500.82 769.04 506.03 C 761.73 505.98 754.42 506.00 747.11 506.00 C 747.02 505.41 746.84 504.24 746.75 503.65 C 746.20 501.56 745.79 499.45 745.26 497.36 C 745.08 496.44 744.91 495.53 744.76 494.63 C 744.33 493.29 743.94 491.96 743.55 490.64 C 742.83 487.07 743.17 483.32 741.77 479.91 C 740.26 476.12 739.03 472.17 739.03 468.05 C 738.93 459.84 735.50 452.14 734.94 443.99 C 734.77 441.66 734.30 439.38 733.91 437.10 C 733.69 436.53 733.24 435.38 733.02 434.81 C 733.03 434.37 733.04 433.48 733.04 433.03 C 732.78 432.48 732.25 431.38 731.99 430.83 C 732.02 430.35 732.08 429.39 732.11 428.91 C 732.02 428.46 731.83 427.56 731.74 427.11 L 730.94 426.90 C 731.10 424.17 731.04 421.43 730.63 418.73 L 730.60 418.44 L 730.48 418.19 C 729.44 414.50 728.43 410.78 727.93 406.97 C 727.88 406.50 727.79 405.58 727.75 405.11 L 726.96 404.85 C 727.15 402.33 727.10 399.76 726.36 397.33 C 726.10 396.44 725.86 395.56 725.63 394.68 C 725.17 392.81 724.97 390.90 724.81 389.00 C 726.66 388.99 728.51 388.97 730.37 388.95 C 732.76 387.62 735.20 386.38 737.61 385.09 C 738.07 385.05 738.99 384.98 739.45 384.95 C 742.69 382.66 746.51 381.16 749.29 378.26 C 752.50 375.01 755.70 371.75 758.98 368.56 C 759.01 368.06 759.05 367.07 759.07 366.58 C 760.49 364.98 761.82 363.30 763.04 361.55 C 763.05 361.06 763.06 360.10 763.07 359.62 C 764.37 357.22 765.62 354.79 766.92 352.40 C 766.97 349.67 766.73 346.85 767.81 344.27 C 767.78 337.97 768.86 331.43 767.21 325.28 C 767.05 323.39 766.97 321.49 766.91 319.61 C 765.62 317.21 764.38 314.79 763.09 312.40 C 763.02 311.46 762.96 310.51 762.90 309.58 C 760.90 307.06 759.17 304.35 757.63 301.53 C 753.30 297.83 749.98 292.95 744.97 290.08 C 742.73 288.85 740.46 287.69 738.39 286.20 C 737.95 286.07 737.09 285.82 736.65 285.69 C 734.56 285.19 732.44 284.80 730.36 284.33 C 729.93 284.15 729.08 283.77 728.65 283.59 C 722.30 282.56 715.70 282.72 709.34 283.51 C 707.73 283.97 706.13 284.48 704.72 285.37 C 703.92 282.80 703.22 280.21 702.52 277.62 C 701.94 274.55 701.88 271.43 701.63 268.33 L 702.03 266.26 C 705.12 265.55 708.27 265.09 711.43 264.78 C 711.05 261.54 710.40 258.34 710.12 255.09 C 710.01 238.58 704.88 222.51 704.98 205.98 C 705.05 189.64 704.95 173.30 705.03 156.96 C 704.99 152.98 705.59 149.03 705.92 145.07 C 706.14 127.17 708.41 109.38 709.18 91.51 C 710.91 80.76 709.17 69.83 710.56 59.05 C 711.96 40.08 713.01 21.07 714.93 2.14 Z" />
<path fill="#000088" opacity="1.00" d=" M 795.26 138.22 C 795.80 138.79 795.80 138.79 795.26 138.22 Z" />
<path fill="#000088" opacity="1.00" d=" M 705.67 291.47 C 707.43 290.44 709.30 289.62 711.16 288.76 C 711.43 289.00 711.96 289.48 712.23 289.72 C 716.89 288.42 721.87 288.83 726.61 289.49 C 727.59 289.94 728.58 290.40 729.58 290.87 C 730.05 290.91 730.99 291.01 731.46 291.06 C 732.48 291.69 733.51 292.32 734.55 292.95 C 735.50 292.99 736.46 293.02 737.43 293.07 C 740.58 296.16 744.72 297.99 747.78 301.18 C 750.44 303.72 752.50 306.78 754.90 309.55 C 754.96 310.01 755.08 310.92 755.14 311.37 C 756.58 313.28 757.75 315.38 758.80 317.53 C 759.05 318.90 759.33 320.27 759.67 321.64 C 759.80 322.09 760.06 322.98 760.19 323.43 C 760.62 324.41 761.06 325.40 761.51 326.40 C 762.08 329.74 761.93 333.14 762.43 336.49 C 761.98 339.55 762.14 342.69 761.32 345.69 C 761.13 346.57 760.96 347.46 760.80 348.35 C 759.53 350.51 758.82 352.89 758.77 355.40 C 756.14 358.47 755.50 362.90 752.33 365.51 C 751.77 366.51 751.23 367.52 750.70 368.54 C 748.91 369.50 747.49 370.92 746.54 372.70 C 745.52 373.24 744.50 373.78 743.51 374.33 C 740.91 377.49 736.51 378.15 733.42 380.72 C 732.06 381.02 730.70 381.33 729.36 381.67 C 728.93 381.84 728.07 382.20 727.64 382.37 C 726.08 382.71 724.51 382.98 722.96 383.27 C 722.85 381.41 722.81 379.56 722.75 377.71 C 721.10 373.32 719.95 368.73 719.20 364.11 C 719.07 357.77 716.91 351.77 715.59 345.64 C 714.85 342.43 715.12 339.10 714.33 335.91 C 713.40 332.15 712.40 328.41 711.68 324.61 C 709.90 320.02 710.34 315.06 709.35 310.33 C 709.12 309.43 708.91 308.53 708.70 307.64 C 708.19 305.55 707.79 303.44 707.30 301.35 C 707.07 300.45 706.86 299.56 706.65 298.67 C 706.04 296.32 705.87 293.88 705.67 291.47 Z" />
<path fill="#000088" opacity="1.00" d=" M 1068.29 361.43 L 1068.44 361.55 L 1068.56 361.69 C 1068.49 361.63 1068.36 361.49 1068.29 361.43 Z" />
<path fill="#000088" opacity="1.00" d=" M 1080.11 378.83 C 1082.07 381.29 1083.86 383.87 1085.49 386.58 C 1090.04 392.51 1094.96 398.30 1098.44 404.96 C 1098.72 404.98 1099.28 405.02 1099.56 405.04 C 1100.88 408.90 1104.33 411.37 1106.06 415.00 C 1106.85 416.63 1108.45 417.58 1109.79 418.71 C 1109.89 418.91 1110.08 419.29 1110.17 419.48 C 1110.06 419.96 1109.84 420.90 1109.73 421.38 C 1108.39 427.70 1105.51 433.62 1104.78 440.08 C 1103.93 444.51 1101.60 448.51 1100.88 452.99 C 1100.17 457.20 1097.63 460.83 1096.95 465.06 C 1096.33 469.45 1093.33 473.05 1092.74 477.46 C 1089.91 482.39 1088.82 488.02 1086.10 492.99 C 1085.35 494.38 1085.01 495.92 1084.69 497.45 C 1083.60 499.49 1082.45 501.50 1081.14 503.41 C 1081.09 504.06 1080.99 505.35 1080.94 506.00 C 1068.00 506.00 1055.06 506.00 1042.13 506.00 C 1042.06 505.26 1041.94 503.79 1041.88 503.05 L 1040.68 502.86 C 1042.08 500.71 1043.26 498.41 1044.82 496.35 C 1044.84 495.42 1044.87 494.49 1044.92 493.57 C 1046.23 491.53 1047.57 489.52 1048.89 487.48 C 1048.87 486.49 1048.86 485.50 1048.87 484.52 C 1049.81 483.15 1050.77 481.78 1051.77 480.44 C 1051.88 480.00 1052.11 479.13 1052.22 478.70 C 1052.57 477.27 1052.83 475.82 1053.09 474.38 C 1053.55 473.92 1054.47 473.01 1054.93 472.55 C 1054.90 472.02 1054.86 470.97 1054.83 470.45 C 1055.35 469.99 1056.38 469.07 1056.89 468.61 C 1056.89 467.28 1056.90 465.96 1056.95 464.64 C 1058.30 462.30 1059.53 459.88 1060.71 457.45 C 1060.88 455.72 1061.09 453.99 1061.57 452.32 C 1061.69 451.89 1061.93 451.02 1062.05 450.59 C 1062.95 448.89 1063.84 447.18 1064.73 445.47 C 1064.89 443.76 1065.10 442.07 1065.46 440.40 C 1065.84 439.41 1066.23 438.43 1066.63 437.45 C 1066.92 436.43 1067.24 435.43 1067.57 434.43 C 1067.93 433.40 1068.30 432.39 1068.70 431.38 C 1068.84 429.37 1069.01 427.36 1069.47 425.40 C 1069.84 424.41 1070.22 423.42 1070.62 422.44 C 1070.94 421.41 1071.28 420.40 1071.65 419.39 C 1071.81 418.96 1072.11 418.11 1072.27 417.69 C 1072.92 414.95 1072.85 412.10 1073.50 409.37 C 1073.85 408.03 1074.20 406.70 1074.59 405.38 C 1074.88 404.04 1075.18 402.69 1075.54 401.36 C 1075.90 400.00 1076.27 398.65 1076.73 397.31 C 1076.81 394.63 1076.77 391.91 1077.53 389.31 C 1077.84 387.63 1078.16 385.94 1078.64 384.29 C 1078.77 383.48 1078.91 382.67 1079.07 381.88 C 1079.33 381.12 1079.85 379.59 1080.11 378.83 Z" />
<path fill="#000088" opacity="1.00" d=" M 1056.05 431.36 C 1056.23 430.77 1056.59 429.61 1056.77 429.02 C 1056.59 429.61 1056.23 430.77 1056.05 431.36 Z" />
<path fill="#000088" opacity="1.00" d=" M 1055.00 433.60 C 1055.17 433.17 1055.51 432.31 1055.68 431.88 C 1055.67 432.47 1055.65 433.66 1055.64 434.25 L 1055.00 433.60 Z" />
<path fill="#000088" opacity="1.00" d=" M 1053.59 438.52 L 1053.75 438.33 L 1053.59 438.55 L 1053.53 438.77 L 1053.59 438.52 Z" />
<path fill="#000088" opacity="1.00" d=" M 1049.73 450.02 C 1050.51 447.04 1051.70 444.21 1052.96 441.42 C 1052.88 441.90 1052.72 442.86 1052.63 443.34 C 1052.19 444.42 1051.75 445.49 1051.29 446.57 C 1050.78 447.72 1050.26 448.87 1049.73 450.02 Z" />
<path fill="#000088" opacity="1.00" d=" M 1049.53 450.50 L 1049.61 450.33 L 1049.53 450.58 L 1049.50 450.75 L 1049.53 450.50 Z" />
<path fill="#000088" opacity="1.00" d=" M 1035.66 486.36 L 1036.04 486.56 L 1035.65 487.00 L 1035.44 486.62 L 1035.66 486.36 Z" />
<path fill="#000088" opacity="1.00" d=" M 1028.17 502.74 C 1026.50 504.38 1025.54 501.11 1027.85 501.86 L 1028.17 502.74 Z" />
</g>
<g id="#e4671bff">
<path fill="#e4671b" opacity="1.00" d=" M 179.92 152.99 C 179.67 147.03 185.32 142.50 190.87 141.97 C 200.86 141.30 210.22 145.74 220.09 146.27 C 232.84 148.17 245.11 152.89 258.05 153.45 C 261.53 156.83 266.64 155.49 270.96 156.36 C 283.34 158.94 295.74 161.41 308.13 163.89 C 310.74 164.54 313.40 164.94 316.09 165.01 C 316.09 167.73 316.09 170.44 316.11 173.16 C 302.45 170.72 288.83 167.99 275.18 165.53 C 262.92 164.92 250.99 161.74 238.92 159.70 C 232.97 158.67 227.07 157.39 221.11 156.43 C 218.35 155.95 214.83 156.67 213.65 159.53 C 213.23 164.26 213.60 169.03 213.51 173.78 C 202.31 173.74 191.10 173.77 179.90 173.76 C 179.95 166.84 179.86 159.92 179.92 152.99 Z" />
<path fill="#e4671b" opacity="1.00" d=" M 130.89 146.50 C 139.96 146.53 149.04 146.45 158.11 146.55 C 158.04 154.58 158.17 162.61 158.04 170.65 C 148.99 170.68 139.94 170.65 130.89 170.67 C 130.92 162.61 130.92 154.56 130.89 146.50 Z" />
<path fill="#e4671b" opacity="1.00" d=" M 76.24 180.69 C 240.75 180.75 405.25 180.75 569.76 180.69 C 569.73 184.73 569.71 188.78 569.80 192.83 C 561.83 192.79 553.84 192.63 545.88 192.88 C 543.98 193.08 545.02 195.75 544.72 197.01 C 544.79 219.57 544.71 242.12 544.75 264.68 C 533.73 264.61 522.70 264.64 511.67 264.66 C 511.81 252.97 511.67 241.28 511.75 229.59 C 509.02 229.66 506.29 229.66 503.57 229.58 C 503.47 234.80 504.81 240.70 501.13 245.06 C 499.30 247.59 497.23 249.99 494.27 251.20 C 492.76 251.29 491.23 251.45 489.95 252.32 C 488.35 252.97 486.74 253.57 485.14 254.17 C 483.12 254.42 481.11 254.72 479.13 255.20 C 472.71 255.34 466.28 255.27 459.85 255.24 C 456.72 254.68 453.70 253.67 450.93 252.10 C 449.59 251.52 448.12 251.30 446.69 251.21 C 444.74 249.16 442.78 247.12 440.84 245.07 C 436.48 240.04 437.69 232.28 440.78 226.87 C 442.53 224.87 444.57 223.17 446.85 221.80 C 450.43 220.25 454.07 218.80 457.84 217.78 C 463.52 216.98 469.26 217.31 474.98 217.26 C 487.23 217.28 499.48 217.20 511.73 217.30 C 511.73 209.11 511.71 200.92 511.74 192.74 C 489.83 192.82 467.92 192.75 446.01 192.77 C 442.51 192.85 438.93 192.39 435.51 193.35 C 435.83 217.11 435.54 240.89 435.66 264.66 C 423.99 264.64 412.33 264.63 400.66 264.66 C 400.77 260.08 400.70 255.50 400.76 250.93 C 399.18 251.20 397.69 251.71 396.29 252.47 L 396.44 253.23 C 394.41 253.95 392.50 254.97 390.98 256.51 C 390.65 256.49 390.00 256.44 389.67 256.42 L 389.48 257.20 C 388.05 257.44 386.63 257.70 385.22 257.98 C 384.17 258.37 383.13 258.77 382.10 259.18 C 376.68 260.33 371.11 260.62 365.60 260.12 C 361.64 258.71 357.09 258.14 353.86 255.27 C 353.62 255.31 353.15 255.38 352.92 255.42 C 352.13 254.34 351.02 253.68 349.81 253.20 C 349.37 252.79 348.50 251.98 348.07 251.57 C 346.19 251.14 344.89 249.84 344.43 247.98 C 343.58 247.01 342.72 246.05 341.89 245.08 C 340.58 243.04 338.85 241.31 337.66 239.19 C 337.07 237.85 336.45 236.53 335.83 235.21 C 335.69 233.84 335.77 232.39 334.99 231.19 C 334.60 230.20 334.23 229.21 333.87 228.22 C 332.13 222.41 330.87 216.43 331.22 210.33 C 339.24 210.16 347.34 210.92 355.30 209.66 C 355.80 208.75 356.30 207.84 356.81 206.94 C 357.89 205.69 358.50 204.17 358.88 202.58 L 359.44 202.49 C 359.31 199.44 359.31 196.39 359.49 193.35 C 354.73 192.20 349.80 192.99 344.97 192.77 C 335.02 192.96 325.01 192.39 315.10 193.05 C 314.27 199.87 314.94 206.89 314.78 213.78 C 300.46 213.65 286.14 213.85 271.82 213.68 C 268.65 214.50 265.74 216.69 265.45 220.17 C 266.53 221.87 268.00 223.08 270.13 222.93 C 276.19 225.06 282.67 224.08 288.95 224.21 C 295.90 223.31 302.92 223.78 309.84 224.71 C 312.77 225.56 316.03 226.22 318.15 228.61 C 319.13 230.75 321.44 232.43 321.29 234.96 C 321.29 240.33 321.26 245.69 321.29 251.06 C 321.44 253.96 320.35 256.83 318.43 258.99 C 318.37 259.52 318.25 260.58 318.19 261.11 C 316.80 261.40 314.99 260.94 314.09 262.36 C 313.75 262.30 313.08 262.17 312.75 262.11 L 312.57 263.08 C 311.39 263.41 310.23 263.78 309.08 264.19 C 307.05 264.42 305.02 264.63 302.98 264.65 C 279.77 264.65 256.56 264.63 233.34 264.66 C 233.36 259.55 233.36 254.45 233.34 249.34 C 252.53 249.32 271.71 249.45 290.89 249.28 C 290.80 248.92 290.62 248.21 290.53 247.85 C 293.42 247.40 292.68 244.19 292.56 242.13 C 292.02 242.23 290.93 242.42 290.39 242.52 C 290.51 242.12 290.77 241.31 290.89 240.91 C 289.61 240.56 288.34 240.20 287.07 239.82 C 281.52 238.75 275.76 238.21 270.15 239.17 C 259.85 240.07 249.20 239.98 239.45 236.14 L 239.22 235.05 C 238.79 235.19 237.95 235.47 237.53 235.61 L 237.52 234.77 C 236.77 233.50 236.07 232.08 234.36 232.12 C 234.46 231.78 234.66 231.09 234.76 230.75 L 233.69 230.50 C 233.31 225.00 233.18 219.47 233.48 213.97 C 233.87 211.08 234.18 207.76 236.73 205.89 C 236.70 205.64 236.64 205.15 236.60 204.90 C 237.52 204.34 238.26 203.61 238.84 202.71 C 240.25 202.49 241.66 202.31 243.09 202.18 C 244.34 201.75 245.59 201.31 246.83 200.84 C 248.84 200.51 250.85 200.19 252.84 199.78 C 264.35 199.67 275.86 199.73 287.37 199.75 C 287.36 197.61 287.38 195.48 287.47 193.35 C 284.39 192.47 281.18 192.80 278.02 192.77 C 258.34 192.76 238.66 192.79 218.98 192.75 C 217.46 192.71 215.98 193.01 214.51 193.33 C 214.83 217.10 214.54 240.88 214.65 264.65 C 202.99 264.64 191.33 264.63 179.67 264.66 C 179.83 240.69 179.63 216.73 179.77 192.76 C 173.11 192.85 166.45 192.65 159.79 192.83 C 158.20 193.67 158.92 195.59 158.74 197.03 C 158.81 202.62 158.71 208.21 158.83 213.80 C 145.55 213.65 132.28 213.81 119.01 213.72 C 116.37 213.64 113.63 213.99 111.31 215.33 C 109.92 217.49 110.32 220.14 110.58 222.55 C 112.73 223.14 114.91 223.56 117.10 223.96 C 120.34 224.38 123.65 224.47 126.88 223.89 C 134.27 223.38 141.74 222.76 149.11 223.83 C 151.11 224.26 153.13 224.52 155.14 224.84 C 156.35 225.65 157.59 226.41 158.88 227.09 C 161.06 228.29 162.66 230.22 164.36 231.99 C 164.59 232.45 165.04 233.38 165.27 233.84 C 165.24 240.61 165.32 247.38 165.26 254.14 C 165.33 257.01 163.09 259.18 161.31 261.16 C 159.72 261.29 158.25 261.86 156.92 262.70 C 155.70 263.26 154.47 263.78 153.22 264.27 C 137.88 265.04 122.49 264.52 107.12 264.58 C 108.29 268.21 110.65 271.40 111.00 275.28 C 104.41 275.28 97.82 275.23 91.23 275.31 C 91.25 273.80 91.27 272.29 91.30 270.78 C 89.44 268.51 87.35 266.36 86.11 263.66 C 83.14 263.62 80.17 263.64 77.19 263.70 C 77.25 259.23 77.25 254.77 77.19 250.31 C 94.45 250.43 111.72 250.30 128.98 250.38 C 132.17 250.79 135.17 249.51 137.41 247.29 C 137.36 245.57 137.32 243.85 137.28 242.14 C 136.95 242.19 136.29 242.29 135.97 242.34 C 133.56 240.12 130.16 239.52 127.01 239.28 C 113.96 238.93 100.67 241.35 87.82 238.18 C 86.53 237.55 85.26 236.90 84.00 236.22 C 83.32 235.51 82.63 234.81 81.93 234.13 C 79.49 232.36 77.54 229.86 77.37 226.74 C 77.16 221.06 76.96 215.32 77.66 209.67 C 79.23 207.25 80.79 204.65 83.29 203.08 C 86.32 201.56 89.63 200.75 92.84 199.75 C 105.50 199.75 118.16 199.63 130.81 199.82 C 130.74 197.46 130.72 195.11 130.74 192.75 C 112.56 192.83 94.38 192.69 76.20 192.83 C 76.29 188.78 76.26 184.73 76.24 180.69 M 392.61 193.35 C 392.71 200.14 392.92 206.95 392.37 213.72 L 390.88 212.99 C 391.04 213.53 391.36 214.60 391.52 215.14 C 389.86 215.66 388.71 216.98 387.51 218.15 C 381.98 220.73 375.84 219.24 370.02 220.32 C 367.04 220.68 363.61 221.14 361.86 223.92 C 362.00 226.99 362.69 230.06 364.14 232.79 C 364.16 234.69 365.10 236.34 366.06 237.93 C 367.01 239.12 367.96 240.31 368.95 241.48 C 371.08 241.94 372.42 243.70 374.06 244.97 C 376.22 246.09 378.64 246.57 380.97 247.24 C 385.86 246.22 390.84 245.15 394.80 241.88 C 396.10 241.70 397.33 241.25 398.39 240.46 C 398.67 240.09 399.23 239.36 399.50 239.00 C 400.08 236.71 400.78 234.40 400.72 232.01 C 400.67 218.93 400.74 205.85 400.67 192.76 C 397.97 192.76 395.26 192.84 392.61 193.35 Z" />
<path fill="#e4671b" opacity="1.00" d=" M 15.34 305.50 C 26.45 305.52 37.56 305.53 48.67 305.49 C 48.67 343.92 48.61 382.36 48.69 420.79 C 37.56 420.74 26.43 420.74 15.30 420.79 C 15.40 382.36 15.33 343.93 15.34 305.50 Z" />
<path fill="#e4671b" opacity="1.00" d=" M 280.50 305.49 C 290.89 305.51 301.28 305.51 311.67 305.49 C 311.67 344.22 311.64 382.96 311.69 421.69 C 301.08 421.63 290.48 421.68 279.87 421.66 C 279.90 419.25 279.92 416.82 280.01 414.42 C 277.98 414.45 275.94 414.64 274.24 415.84 C 267.18 419.92 259.25 423.02 250.96 422.68 C 243.15 422.40 235.18 423.45 227.53 421.41 C 217.07 418.77 206.88 413.36 200.40 404.52 C 193.67 396.71 191.88 385.98 192.31 375.98 C 191.93 370.77 194.42 366.00 196.47 361.39 C 199.51 354.60 205.84 350.17 212.07 346.56 C 221.02 342.45 230.88 340.79 240.59 339.63 C 246.40 339.16 252.32 339.02 258.05 340.22 C 265.74 341.41 272.65 345.78 280.51 346.06 C 280.50 332.53 280.51 319.01 280.50 305.49 M 245.98 358.89 C 237.22 359.93 229.37 366.50 227.11 375.07 C 226.20 380.82 226.02 387.31 229.76 392.17 C 234.56 398.95 242.29 405.01 251.04 404.19 C 255.94 404.04 261.15 404.86 265.66 402.45 C 271.61 399.54 277.26 395.08 280.04 388.93 C 280.61 384.00 280.58 378.93 280.09 374.00 C 278.09 366.87 271.69 361.42 264.76 359.26 C 258.59 358.16 252.22 358.58 245.98 358.89 M 278.20 413.34 C 277.95 415.42 281.65 413.38 279.13 412.91 L 278.20 413.34 Z" />
<path fill="#e4671b" opacity="1.00" d=" M 112.10 340.12 C 121.06 337.13 130.61 336.81 139.97 336.90 C 150.59 336.91 161.30 340.33 169.62 347.00 C 174.39 350.85 177.82 356.72 177.68 362.97 C 177.67 382.54 177.64 402.12 177.69 421.69 C 167.09 421.63 156.50 421.67 145.91 421.67 C 145.86 404.06 146.01 386.45 145.84 368.85 C 145.01 360.93 137.19 356.06 129.98 354.71 C 121.19 353.77 112.08 355.28 104.16 359.23 C 100.42 361.11 96.59 364.39 96.68 368.95 C 96.65 386.53 96.65 404.11 96.69 421.69 C 85.86 421.66 75.04 421.63 64.21 421.70 C 64.23 393.65 64.32 365.59 64.16 337.53 C 74.15 337.46 84.13 337.53 94.11 337.50 C 94.09 341.42 94.08 345.34 94.09 349.27 C 100.27 346.57 105.75 342.46 112.10 340.12 Z" />
<path fill="#e4671b" opacity="1.00" d=" M 333.90 336.90 C 343.97 336.91 354.03 336.91 364.10 336.90 C 364.09 364.63 364.09 392.36 364.10 420.10 C 354.03 420.09 343.97 420.09 333.90 420.10 C 333.91 392.36 333.91 364.63 333.90 336.90 Z" />
<path fill="#e4671b" opacity="1.00" d=" M 510.50 337.50 C 520.37 337.54 530.24 337.44 540.11 337.55 C 540.05 341.02 540.19 344.50 540.00 347.97 L 539.91 348.77 C 540.39 348.66 541.34 348.44 541.82 348.32 C 548.63 344.77 555.29 340.56 562.95 339.09 C 570.15 337.27 577.56 336.56 584.98 336.90 C 596.06 336.16 607.18 340.37 615.57 347.54 C 619.69 351.20 623.29 356.26 623.11 362.02 C 623.04 381.91 623.16 401.80 623.04 421.70 C 612.52 421.62 602.00 421.68 591.49 421.67 C 591.52 404.78 591.50 387.89 591.50 371.00 C 591.75 365.88 588.94 360.87 584.60 358.22 C 572.94 351.98 557.63 353.39 547.07 361.29 C 544.05 363.50 541.67 366.96 541.67 370.80 C 541.66 387.76 541.64 404.72 541.69 421.69 C 531.28 421.64 520.88 421.67 510.49 421.67 C 510.52 393.61 510.50 365.55 510.50 337.50 Z" />
<path fill="#e4671b" opacity="1.00" d=" M 379.33 337.49 C 405.54 337.51 431.75 337.51 457.96 337.49 C 466.77 337.82 476.05 337.83 484.02 342.14 C 490.94 345.65 495.17 353.34 495.10 361.02 C 495.05 381.25 495.16 401.47 495.04 421.70 C 484.52 421.62 474.01 421.67 463.50 421.67 C 463.49 420.03 463.49 418.39 463.48 416.76 C 458.16 418.27 453.34 421.16 448.02 422.72 C 434.00 427.80 418.46 428.47 404.08 424.49 C 395.63 422.13 387.27 418.21 381.35 411.55 C 377.69 407.68 375.60 402.36 375.89 397.02 C 376.09 391.26 374.86 384.85 378.59 379.90 C 383.27 373.56 390.91 370.53 397.54 366.71 C 407.12 365.61 416.30 361.97 426.04 361.93 C 438.81 360.95 451.06 365.33 463.57 367.04 C 463.51 359.10 457.25 351.35 449.05 351.09 C 425.83 351.09 402.61 351.07 379.39 351.11 C 379.30 346.57 379.35 342.03 379.33 337.49 M 412.30 386.43 C 409.66 390.18 410.09 394.96 410.22 399.31 C 410.60 400.40 410.96 401.51 411.30 402.63 C 413.82 406.07 417.45 408.37 421.48 409.66 C 427.65 410.96 433.97 412.21 440.31 411.73 C 441.66 411.23 443.06 410.93 444.48 410.67 C 449.90 408.55 455.26 405.58 458.45 400.53 C 460.78 396.91 459.53 392.44 459.87 388.41 C 457.24 383.57 452.44 380.54 447.57 378.33 C 442.56 376.56 437.21 377.26 432.02 377.16 C 424.69 377.78 416.93 380.40 412.30 386.43 Z" />
<path fill="#e4671b" opacity="1.00" d=" M 726.96 404.85 L 727.75 405.11 C 727.79 405.58 727.88 406.50 727.93 406.97 C 727.69 406.44 727.20 405.38 726.96 404.85 Z" />
<path fill="#e4671b" opacity="1.00" d=" M 730.48 418.19 L 730.60 418.44 L 730.63 418.73 C 730.60 418.60 730.52 418.33 730.48 418.19 Z" />
<path fill="#e4671b" opacity="1.00" d=" M 730.94 426.90 L 731.74 427.11 C 731.83 427.56 732.02 428.46 732.11 428.91 C 731.82 428.41 731.24 427.40 730.94 426.90 Z" />
</g>
<g id="#ffffffff">
<path fill="#ffffff" opacity="1.00" d=" M 540.00 347.97 C 540.46 348.06 541.37 348.24 541.82 348.32 C 541.34 348.44 540.39 348.66 539.91 348.77 L 540.00 347.97 Z" />
<path fill="#ffffff" opacity="1.00" d=" M 1070.61 370.47 C 1073.64 374.13 1075.37 378.75 1079.07 381.88 C 1078.91 382.67 1078.77 383.48 1078.64 384.29 C 1078.16 385.94 1077.84 387.63 1077.53 389.31 C 1076.77 391.91 1076.81 394.63 1076.73 397.31 C 1076.27 398.65 1075.90 400.00 1075.54 401.36 C 1075.18 402.69 1074.88 404.04 1074.59 405.38 C 1074.20 406.70 1073.85 408.03 1073.50 409.37 C 1072.85 412.10 1072.92 414.95 1072.27 417.69 C 1072.11 418.11 1071.81 418.96 1071.65 419.39 C 1071.28 420.40 1070.94 421.41 1070.62 422.44 C 1070.22 423.42 1069.84 424.41 1069.47 425.40 C 1069.01 427.36 1068.84 429.37 1068.70 431.38 C 1068.30 432.39 1067.93 433.40 1067.57 434.43 C 1067.24 435.43 1066.92 436.43 1066.63 437.45 C 1066.23 438.43 1065.84 439.41 1065.46 440.40 C 1065.10 442.07 1064.89 443.76 1064.73 445.47 C 1063.84 447.18 1062.95 448.89 1062.05 450.59 C 1061.93 451.02 1061.69 451.89 1061.57 452.32 C 1061.09 453.99 1060.88 455.72 1060.71 457.45 C 1059.53 459.88 1058.30 462.30 1056.95 464.64 C 1056.90 465.96 1056.89 467.28 1056.89 468.61 C 1056.38 469.07 1055.35 469.99 1054.83 470.45 C 1054.86 470.97 1054.90 472.02 1054.93 472.55 C 1054.47 473.01 1053.55 473.92 1053.09 474.38 C 1052.83 475.82 1052.57 477.27 1052.22 478.70 C 1052.11 479.13 1051.88 480.00 1051.77 480.44 C 1050.77 481.78 1049.81 483.15 1048.87 484.52 C 1048.86 485.50 1048.87 486.49 1048.89 487.48 C 1047.57 489.52 1046.23 491.53 1044.92 493.57 C 1044.87 494.49 1044.84 495.42 1044.82 496.35 C 1043.26 498.41 1042.08 500.71 1040.68 502.86 C 1036.50 502.74 1032.33 502.81 1028.17 502.74 L 1027.85 501.86 C 1028.23 501.87 1029.00 501.90 1029.39 501.91 C 1031.29 498.89 1033.31 495.82 1033.91 492.23 C 1034.35 491.83 1035.22 491.04 1035.65 490.64 C 1035.64 489.42 1035.64 488.21 1035.65 487.00 L 1036.04 486.56 L 1037.01 485.49 C 1037.11 484.44 1037.21 483.39 1037.29 482.35 C 1037.78 481.90 1038.74 481.02 1039.23 480.58 C 1039.22 480.03 1039.19 478.95 1039.18 478.40 C 1039.64 477.96 1040.56 477.07 1041.01 476.62 C 1041.34 474.51 1041.79 472.43 1042.27 470.36 C 1042.72 469.93 1043.62 469.06 1044.08 468.62 C 1044.50 466.60 1044.95 464.59 1045.35 462.57 C 1047.27 458.84 1049.56 455.12 1049.50 450.75 L 1049.53 450.58 L 1049.61 450.33 L 1049.73 450.02 C 1050.26 448.87 1050.78 447.72 1051.29 446.57 C 1051.75 445.49 1052.19 444.42 1052.63 443.34 C 1052.72 442.86 1052.88 441.90 1052.96 441.42 C 1053.10 440.75 1053.39 439.43 1053.53 438.77 L 1053.59 438.55 L 1053.75 438.33 C 1054.12 437.87 1054.87 436.97 1055.24 436.51 C 1055.34 435.95 1055.54 434.82 1055.64 434.25 C 1055.65 433.66 1055.67 432.47 1055.68 431.88 L 1056.05 431.36 C 1056.23 430.77 1056.59 429.61 1056.77 429.02 C 1057.54 425.18 1058.55 421.17 1061.48 418.35 C 1061.46 416.05 1061.39 413.75 1061.31 411.46 L 1062.46 411.80 C 1063.23 408.79 1064.09 405.81 1065.07 402.86 C 1065.80 400.39 1065.38 397.82 1065.39 395.30 C 1066.69 389.88 1068.84 384.60 1069.20 378.98 C 1069.34 376.10 1069.94 373.27 1070.61 370.47 Z" />
<path fill="#ffffff" opacity="1.00" d=" M 278.20 413.34 L 279.13 412.91 C 281.65 413.38 277.95 415.42 278.20 413.34 Z" />
</g>
</svg>
